<?xml version="1.0" encoding="UTF-8"?> <svg xmlns="http://www.w3.org/2000/svg" width="59" height="19" viewBox="0 0 59 19" fill="none"><path d="M50.3255 11.2117H51.9529C51.9529 11.2117 53.7143 15.5102 53.7896 15.7057C53.8652 15.509 55.4765 11.2117 55.4765 11.2117H55.9692L53.8044 16.8108C53.5805 17.3333 53.4163 17.6917 53.2073 17.856C52.9237 18.0799 52.5652 18.0949 52.0127 18.0949H51.9678V17.6917H52.0127C52.5501 17.6917 52.789 17.617 53.0278 17.3781C53.1771 17.2288 53.3118 16.8705 53.5358 16.2285C53.5208 16.1986 51.6097 11.6745 51.5947 11.6148H50.3255V15.064C50.3255 15.3924 50.3854 15.6016 50.5198 15.721C50.684 15.8851 50.9528 15.915 51.3707 15.9001H51.4156V16.3032H51.3707C50.9676 16.3181 50.4598 16.3179 50.1612 16.0193C49.9523 15.8253 49.8629 15.5416 49.8629 15.1536V11.6148H48.9369V11.2117H49.8629V9.65888H50.3255C50.3255 9.65888 50.3255 11.1348 50.3255 11.2117Z" fill="white"></path><path d="M7.71408 16.3626C7.8036 16.3626 7.87821 16.4374 7.87831 16.5269C7.87831 16.6165 7.80366 16.6911 7.71408 16.6911C7.63944 16.6911 7.56471 16.6164 7.56471 16.5269C7.56481 16.4374 7.63949 16.3627 7.71408 16.3626Z" fill="white"></path><path fill-rule="evenodd" clip-rule="evenodd" d="M6.68411 15.8402C6.74367 15.8551 6.7884 15.8551 6.83309 15.87L6.89292 15.9149L6.8632 16.1984C6.84828 16.3327 6.83311 16.5268 6.83309 16.6016L6.87806 16.6317L6.8632 16.6763C6.81841 16.6464 6.75862 16.6314 6.71383 16.6016C6.66905 16.5717 6.60923 16.5571 6.56446 16.5421L6.57932 16.4972L6.63914 16.512C6.65406 16.4523 6.66884 16.3629 6.66886 16.3032L6.46005 16.2137L6.32554 16.3779L6.37051 16.4076L6.35565 16.4526C6.31086 16.4377 6.26586 16.4077 6.236 16.3928C6.20614 16.3778 6.16145 16.3627 6.13159 16.3478L6.14645 16.3032L6.20628 16.3181C6.32573 16.2285 6.53483 16.0044 6.68411 15.8402ZM6.53474 16.139L6.68411 16.2137L6.71383 15.9298L6.53474 16.139Z" fill="white"></path><path d="M8.72957 15.8852L8.66975 15.9149C8.68468 15.9746 8.71458 16.0194 8.74443 16.094L8.81912 16.2731C8.84898 16.3478 8.8788 16.3929 8.90866 16.4526L8.9681 16.4373L8.98335 16.4823C8.93857 16.4972 8.87877 16.5272 8.83398 16.5421C8.78919 16.572 8.72939 16.587 8.68461 16.6168L8.66975 16.5718L8.72957 16.5421C8.69971 16.4824 8.68475 16.4373 8.65489 16.3626L8.5802 16.1836C8.55035 16.109 8.52051 16.0642 8.49066 16.0045L8.43083 16.0193L8.41597 15.9747C8.46075 15.9598 8.52057 15.9298 8.56534 15.9149C8.61009 15.8851 8.66958 15.87 8.71432 15.8402L8.72957 15.8852Z" fill="white"></path><path d="M9.93863 15.213L9.89405 15.258C9.90899 15.3028 9.93882 15.3625 9.9836 15.4222L10.088 15.6013C10.1178 15.661 10.1625 15.7208 10.1924 15.7656H10.2374L10.2522 15.8105C10.2075 15.8404 10.1476 15.8702 10.1029 15.9001C10.0581 15.9299 10.0135 15.9598 9.96874 15.9896L9.95388 15.9446L9.99846 15.9001C9.96861 15.8404 9.95364 15.7807 9.90891 15.721L9.84908 15.6162C9.80432 15.5267 9.7596 15.4669 9.74468 15.4371L9.86394 16.0342L9.7744 16.094C9.71461 16.0343 9.56549 15.9296 9.31181 15.7057C9.32674 15.7356 9.37143 15.7956 9.41622 15.8852L9.47604 15.9896C9.50591 16.0493 9.5506 16.1091 9.58045 16.1538L9.64028 16.1241L9.66999 16.1687C9.64015 16.1836 9.59545 16.2136 9.56559 16.2285C9.53573 16.2435 9.49066 16.2734 9.46079 16.2884L9.43108 16.2434L9.47604 16.1984C9.44607 16.1236 9.2819 15.8551 9.23713 15.7656L9.19216 15.676L9.13233 15.6909L9.10261 15.6463C9.14741 15.6164 9.19234 15.6015 9.23713 15.5716C9.26697 15.5567 9.31165 15.5267 9.35639 15.4969C9.4161 15.5716 9.68482 15.7805 9.75954 15.8402C9.7446 15.7655 9.68501 15.4076 9.65514 15.3178C9.69993 15.288 9.74486 15.273 9.78965 15.2431C9.8195 15.2282 9.86418 15.1983 9.90891 15.1685L9.93863 15.213Z" fill="white"></path><path fill-rule="evenodd" clip-rule="evenodd" d="M5.48952 15.1235C5.51936 15.1533 5.56407 15.1684 5.59393 15.1982C5.63872 15.228 5.68365 15.243 5.72844 15.2729C5.77318 15.3027 5.81783 15.3177 5.86256 15.3475C6.01187 15.4521 6.01222 15.5568 5.9525 15.6314C5.90769 15.7209 5.80281 15.7356 5.69833 15.6909C5.71326 15.7655 5.74323 16.0195 5.75816 16.0643L5.77302 16.094L5.7433 16.139C5.68359 16.0942 5.60907 16.064 5.54935 16.0342C5.54934 15.9148 5.53416 15.7359 5.51924 15.6314L5.47467 15.6013L5.44456 15.6611C5.39981 15.7208 5.36993 15.7806 5.35501 15.8254L5.39998 15.87L5.36987 15.9149C5.32514 15.8851 5.28048 15.8552 5.23575 15.8254C5.19097 15.7955 5.14608 15.7657 5.08638 15.7358L5.11609 15.6909L5.17592 15.721C5.22071 15.6762 5.25079 15.6165 5.29558 15.5567L5.39998 15.3773C5.44471 15.3176 5.47455 15.2578 5.50438 15.213L5.45981 15.1685L5.48952 15.1235ZM5.6389 15.3475C5.62397 15.3774 5.59407 15.4224 5.56421 15.4672L5.5341 15.5118L5.57907 15.5567C5.66862 15.6164 5.74349 15.6161 5.78827 15.5415C5.81798 15.4819 5.80291 15.4372 5.72844 15.3925C5.68369 15.3627 5.66871 15.3624 5.6389 15.3475Z" fill="white"></path><path d="M10.5956 14.6159C10.715 14.5114 10.8345 14.5264 10.9092 14.6159C10.9838 14.7204 10.9838 14.8699 10.8345 14.9894C10.8047 15.0043 10.7747 15.0339 10.7449 15.0488L10.7152 14.9593C10.7301 14.9592 10.7449 14.9444 10.7598 14.9295C10.8344 14.8848 10.8197 14.8101 10.775 14.7504C10.7302 14.7057 10.6702 14.6907 10.5956 14.7504C10.5659 14.7653 10.551 14.7949 10.5361 14.8099C10.566 14.8696 10.6106 14.9293 10.6554 14.9741L10.7449 15.0938C10.7897 15.1535 10.8346 15.1983 10.8794 15.2431L10.9541 15.1833L10.9838 15.213C10.9241 15.2728 10.8793 15.3028 10.8345 15.3327C10.7898 15.3625 10.7451 15.4073 10.7004 15.4371L10.6702 15.4074L10.7152 15.3624C10.6853 15.3176 10.6403 15.2727 10.5956 15.213L10.4763 15.0488C10.4315 14.9891 10.3865 14.9446 10.3418 14.8998L10.2823 14.9295L10.2522 14.8998C10.297 14.87 10.342 14.8397 10.3719 14.8099C10.4017 14.7801 10.4464 14.7502 10.4912 14.7055C10.5359 14.6756 10.5657 14.6458 10.5956 14.6159Z" fill="white"></path><path fill-rule="evenodd" clip-rule="evenodd" d="M4.28008 14.6159C4.41445 14.4517 4.6385 14.4368 4.8326 14.6011C5.02666 14.7653 5.05658 14.9744 4.90729 15.1536C4.77291 15.3178 4.56377 15.3327 4.35476 15.1685C4.16067 15.0042 4.13078 14.81 4.28008 14.6159ZM4.75791 14.6758C4.6534 14.5862 4.5191 14.6311 4.41459 14.7356C4.31013 14.855 4.31009 14.9893 4.41459 15.0789C4.51909 15.1684 4.65343 15.1236 4.75791 15.0191C4.84748 14.9146 4.86238 14.7653 4.75791 14.6758Z" fill="white"></path><path fill-rule="evenodd" clip-rule="evenodd" d="M11.6259 14.0486C11.7453 14.1082 11.9242 14.1829 11.9841 14.1979L12.0588 14.1682L12.0889 14.1979C12.0665 14.2128 12.0477 14.2314 12.0291 14.2519L11.9094 14.3825C11.8908 14.403 11.8723 14.4219 11.85 14.4368L11.8199 14.4071L11.85 14.3622C11.8052 14.3323 11.7154 14.2876 11.6556 14.2578L11.4914 14.422L11.5962 14.6011L11.6408 14.5714L11.6709 14.6011C11.641 14.6309 11.6108 14.6608 11.5809 14.6906C11.5511 14.7204 11.5216 14.7504 11.5066 14.7802L11.4765 14.7504L11.5066 14.7055C11.4619 14.5711 11.3123 14.2876 11.2228 14.0935C11.2526 14.0487 11.2825 14.0038 11.2974 13.959L11.3573 13.9293L11.6259 14.0486ZM11.4765 14.3324L11.5962 14.2128L11.3424 14.0935L11.4765 14.3324Z" fill="white"></path><path d="M3.45892 13.7799C3.62316 13.6306 3.86207 13.6606 4.0263 13.8397C4.08597 13.9143 4.13097 13.9739 4.16082 14.0634C4.11606 14.0783 4.05622 14.1231 4.01144 14.153L3.98133 14.1084L4.01144 14.0634C4.0114 14.0037 3.98151 13.9439 3.93676 13.8992C3.8621 13.8096 3.7277 13.765 3.60829 13.8843C3.48885 14.0038 3.48892 14.1532 3.59344 14.2578C3.63822 14.3174 3.71277 14.3472 3.80224 14.3622L3.78738 14.4517C3.62318 14.4368 3.53364 14.377 3.44406 14.2875C3.3097 14.1531 3.29473 13.9292 3.45892 13.7799Z" fill="white"></path><path fill-rule="evenodd" clip-rule="evenodd" d="M12.0439 13.0632C12.1634 12.8989 12.268 12.9139 12.3427 12.9736C12.4173 13.0333 12.432 13.1378 12.3872 13.2274C12.4619 13.2274 12.7159 13.2125 12.7607 13.2125L12.8205 13.1977L12.8502 13.2274C12.8054 13.2871 12.7604 13.3468 12.7306 13.4065C12.5962 13.4065 12.417 13.3916 12.3126 13.3916L12.2828 13.4366L12.3278 13.4812C12.3875 13.5259 12.4323 13.5557 12.492 13.5856L12.5366 13.541L12.5816 13.5707C12.5517 13.6155 12.5066 13.6604 12.4768 13.7052C12.4469 13.75 12.4171 13.795 12.3724 13.8397L12.3278 13.8096L12.3575 13.7502C12.3127 13.7054 12.2679 13.6753 12.2082 13.6305L12.0439 13.5113C11.9842 13.4665 11.9394 13.4364 11.8797 13.3916L11.8351 13.4366L11.7901 13.4065C11.82 13.3766 11.8499 13.3468 11.8648 13.3021C11.8947 13.2573 11.9245 13.2275 11.9544 13.1828C11.9842 13.138 12.0141 13.108 12.0439 13.0632ZM12.268 13.1378C12.2232 13.0931 12.1634 13.1082 12.1186 13.1828C12.0888 13.2126 12.0737 13.2422 12.0588 13.2571C12.0886 13.272 12.1187 13.3172 12.1784 13.347L12.223 13.3768L12.268 13.3318C12.3276 13.2572 12.3276 13.1826 12.268 13.1378Z" fill="white"></path><path d="M2.99595 12.6002C3.01088 12.63 3.04084 12.6603 3.05577 12.6901C3.08559 12.72 3.10062 12.7498 3.13046 12.7797C3.05583 12.9588 2.98136 13.1679 2.92165 13.347C2.92487 13.3444 3.16117 13.1522 3.26497 13.078L3.23486 13.0186L3.27983 12.9885C3.30967 13.0183 3.32469 13.063 3.35452 13.0929C3.38438 13.1377 3.39934 13.1678 3.4292 13.1977L3.39909 13.2274L3.35452 13.1676C3.30973 13.1974 3.25001 13.2276 3.19029 13.2724L3.02606 13.3916C2.93647 13.4513 2.87658 13.5111 2.81686 13.5559C2.80195 13.5409 2.78719 13.5109 2.77228 13.496C2.75737 13.4811 2.74222 13.4515 2.72731 13.4366C2.80195 13.2276 2.86188 13.0335 2.93651 12.8544C2.81707 12.9439 2.68245 13.0483 2.57794 13.123L2.62291 13.1977L2.5928 13.2274C2.56305 13.1976 2.54825 13.1528 2.5185 13.123C2.48869 13.0783 2.47358 13.0484 2.44382 13.0186L2.47353 12.9885L2.5185 13.0334C2.57818 13.0036 2.62304 12.9734 2.68273 12.9286L2.84696 12.8094C2.90656 12.7647 2.95124 12.7348 2.99595 12.6901L2.96623 12.6303L2.99595 12.6002Z" fill="white"></path><path fill-rule="evenodd" clip-rule="evenodd" d="M12.7008 12.1376C12.8352 11.9136 13.0146 11.8539 13.2236 11.9734C13.4026 12.063 13.4623 12.2868 13.3281 12.5106C13.1937 12.7346 12.9993 12.7943 12.8052 12.6749C12.6262 12.5703 12.5666 12.3615 12.7008 12.1376ZM13.1189 12.1376C12.9845 12.063 12.8502 12.0777 12.7755 12.1822C12.7009 12.3016 12.7606 12.4211 12.8948 12.5106C13.0292 12.5853 13.1639 12.5706 13.2385 12.4661C13.3132 12.3466 13.2532 12.2123 13.1189 12.1376Z" fill="white"></path><path fill-rule="evenodd" clip-rule="evenodd" d="M2.53336 11.824C2.5632 11.8687 2.60792 11.8986 2.63777 11.9284L2.65262 11.9882L2.45868 12.2271C2.35416 12.3317 2.23483 12.4662 2.19004 12.5259L2.2049 12.5853L2.15993 12.6154C2.13007 12.5707 2.1151 12.5258 2.08524 12.4661C2.05538 12.4213 2.02556 12.3764 1.9957 12.3167L2.04067 12.3018L2.08524 12.3464C2.13004 12.3016 2.20476 12.2419 2.23462 12.1822L2.13021 11.9882L1.92101 12.0332L1.93587 12.0926L1.90615 12.1075C1.89121 12.0628 1.86124 12.033 1.84633 11.9882C1.83142 11.9584 1.81667 11.9285 1.78689 11.8838L1.83147 11.8686L1.87644 11.9135C2.02578 11.9135 2.33931 11.8539 2.53336 11.824ZM2.21976 11.9882L2.3093 12.1227L2.48839 11.9284L2.21976 11.9882Z" fill="white"></path><path d="M1.89129 11.0775C1.98086 11.0775 2.05553 11.1522 2.05553 11.2418C2.05548 11.3164 1.98084 11.3911 1.89129 11.3911C1.81667 11.3911 1.74197 11.3164 1.74192 11.2418C1.74192 11.1522 1.80171 11.0775 1.89129 11.0775Z" fill="white"></path><path d="M13.567 11.0775C13.6565 11.0776 13.7312 11.1522 13.7312 11.2418C13.7312 11.3164 13.6565 11.3911 13.567 11.3911C13.4774 11.3911 13.4027 11.3164 13.4176 11.2418C13.4176 11.1522 13.4923 11.0775 13.567 11.0775Z" fill="white"></path><path fill-rule="evenodd" clip-rule="evenodd" d="M15.3434 10.6294L15.3137 10.7041C15.03 11.6447 14.5524 12.5855 14.209 13.1977L14.1343 13.3318L13.6417 12.8841C13.6267 12.9139 13.5968 12.9586 13.5818 12.9885C12.3277 14.9892 10.5657 16.4375 8.46055 17.2139L7.71408 17.4825L6.96761 17.2139C4.87736 16.4525 3.1008 14.9891 1.86158 12.9885C1.84666 12.9586 1.83158 12.9139 1.80175 12.8841L1.2942 13.3318L1.21951 13.1977C0.876111 12.5706 0.413077 11.6298 0.114468 10.7041L0.0996094 10.6294L1.45843 9.40511L1.51786 9.58459C1.57757 9.80845 1.65244 10.0173 1.72706 10.2263L2.07039 9.91305L2.2049 9.7934L2.26433 9.97249C2.51815 10.7339 2.86186 11.4506 3.26497 12.0926C4.32503 13.7798 5.80299 15.0043 7.54985 15.6463C7.54985 15.6463 7.66916 15.6908 7.72894 15.7057C7.78866 15.6908 7.90842 15.6463 7.90842 15.6463C9.65522 15.0043 11.1482 13.7797 12.1933 12.0926C12.5964 11.4506 12.9397 10.7339 13.1935 9.97249L13.2534 9.7934L13.7312 10.2263C13.8058 10.0174 13.8803 9.80841 13.94 9.58459L13.9998 9.40511L15.3434 10.6294ZM13.3429 10.2263C13.0891 10.9429 12.7754 11.6299 12.3872 12.242C11.3123 13.9739 9.78928 15.2282 7.98271 15.9001L7.71408 15.9896L7.4603 15.9001C5.65372 15.2431 4.14569 13.9739 3.05577 12.242C2.6676 11.6299 2.35391 10.9429 2.1001 10.2263C1.90598 10.3905 1.27905 10.9731 1.17454 11.0627C1.41342 11.6897 1.727 12.302 2.07039 12.8544C3.29466 14.8102 5.02662 16.2285 7.07201 16.975C7.07201 16.975 7.66877 17.1839 7.72894 17.2139C7.80359 17.1841 8.40111 16.975 8.40111 16.975C10.4465 16.2285 12.1785 14.7952 13.4027 12.8544C13.7162 12.3169 14.0296 11.7046 14.2685 11.0627C14.164 10.9731 13.5221 10.3905 13.3429 10.2263ZM1.42832 12.9138C1.47312 12.8541 1.5776 12.7644 1.6821 12.6749C1.53284 12.4211 1.3835 12.1525 1.26409 11.8838L1.42832 12.9138ZM14.1789 11.8838C14.0595 12.1525 13.9102 12.4211 13.7609 12.6749C13.8654 12.7644 13.955 12.8541 14.0147 12.9138L14.1789 11.8838ZM14.1042 9.83836C14.0445 10.0324 13.9849 10.2266 13.9103 10.4057L14.5672 11.0028L14.3432 12.436C14.597 11.9134 14.8658 11.3162 15.0599 10.7041C14.9701 10.6144 14.2983 10.0175 14.1042 9.83836ZM1.33877 9.83836C1.14455 10.0176 0.472671 10.6145 0.383104 10.7041C0.577185 11.3162 0.831131 11.9135 1.09986 12.4211L0.875798 11.0028L1.53311 10.4057C1.45848 10.2266 1.39848 10.0324 1.33877 9.83836Z" fill="white"></path><path d="M18.1205 13.4812C18.1205 14.6457 18.4941 16.0193 20.2559 16.0193C21.7787 16.0193 22.4953 15.213 22.4953 13.4812V9.27098H23.0028V13.4812C23.0028 15.4818 22.0773 16.4822 20.2559 16.4823C18.4941 16.4823 17.5981 15.4669 17.5981 13.4812V9.27098H18.1205V13.4812Z" fill="white"></path><path fill-rule="evenodd" clip-rule="evenodd" d="M37.2765 11.0924C37.9333 11.0924 38.4707 11.3014 38.8887 11.7043C39.3068 12.1523 39.5456 12.8244 39.5456 13.6008V13.8397H35.4997V13.8546C35.4997 14.5264 35.7087 15.1385 36.0968 15.5266C36.4103 15.8402 36.8136 16.0045 37.2914 16.0045C38.217 16.0045 38.8589 15.4668 39.0381 14.5561V14.5264H39.501L39.4862 14.5714C39.2771 15.7657 38.5007 16.4224 37.2765 16.4225C36.6644 16.4225 36.1119 16.2136 35.7237 15.8105C35.2609 15.3328 35.0069 14.6459 35.0218 13.8397C35.0218 12.9738 35.2905 12.1822 35.7832 11.6895C36.1714 11.3013 36.6793 11.0924 37.2765 11.0924ZM37.2765 11.5104C36.2164 11.5104 35.5893 12.466 35.4997 13.4515H39.0682C39.0234 12.481 38.4111 11.5105 37.2765 11.5104Z" fill="white"></path><path d="M44.9355 11.0924C46.1598 11.0924 46.832 11.6747 46.832 12.7347V12.7797H46.369V12.7347C46.369 11.6597 45.473 11.4955 44.9355 11.4955C44.2488 11.4956 43.5322 11.7494 43.5321 12.4211C43.5321 13.1377 44.2488 13.2872 45.0102 13.4515L45.1596 13.4812C46.145 13.6753 46.9662 13.9142 47.0111 14.9741C47.0111 16.3029 45.4731 16.4076 45.0102 16.4076C43.7562 16.4076 42.965 15.7059 42.935 14.5862V14.5412H43.3828V14.5862C43.4425 15.4521 44.0697 16.0045 44.9954 16.0045C45.4582 16.0045 46.5332 15.9149 46.5333 14.9894C46.5333 14.2279 45.7718 14.0787 44.9805 13.9144L44.846 13.8843C44.0995 13.735 43.0844 13.5259 43.0844 12.4211C43.0845 11.1821 44.5024 11.0924 44.9355 11.0924Z" fill="white"></path><path d="M26.3473 11.0924C28.1688 11.0924 28.1686 12.6005 28.1836 13.1828V16.3181H27.721V13.1081C27.721 12.705 27.7209 11.5104 26.3473 11.5104C25.2723 11.5104 24.5853 12.3167 24.5853 13.5559V16.3032H24.1227V11.2117H24.5853C24.5853 11.2117 24.5853 11.9284 24.5853 12.1673C24.869 11.5104 25.556 11.0924 26.3473 11.0924Z" fill="white"></path><path d="M29.7516 16.3032H29.3035V11.2117H29.7516V16.3032Z" fill="white"></path><path d="M32.6182 15.7358C32.6779 15.5865 34.2902 11.2117 34.2902 11.2117H34.7978L32.872 16.3032H32.3492L30.3037 11.2117H30.8265C30.8265 11.2117 32.5585 15.5865 32.6182 15.7358Z" fill="white"></path><path d="M42.7411 11.63H42.6961C42.517 11.6151 41.89 11.5851 41.3526 12.1075C41.0092 12.4808 40.8448 12.7647 40.8 13.5261V16.3032H40.3371V11.2117H40.8C40.8 11.2117 40.8 12.0032 40.8 12.2271C41.052 11.6393 41.7763 11.2088 42.5425 11.1819H42.7411V11.63Z" fill="white"></path><path d="M48.3695 16.3032H47.907V11.2117H48.3695V16.3032Z" fill="white"></path><path d="M10.4466 1.88018C10.5511 2.13399 10.5658 2.38792 10.5658 2.59694V4.38862H10.4466V1.88018Z" fill="white"></path><path d="M5.29558 4.08988C5.47464 4.08991 5.65373 4.13466 5.84771 4.17942C5.99701 4.22421 6.16138 4.25443 6.31068 4.26936V4.38862C6.13153 4.37369 5.96728 4.34386 5.81799 4.29908C5.63889 4.2543 5.45976 4.20951 5.29558 4.22439C5.19106 4.22439 5.10113 4.2395 5.04141 4.26936V4.13485C5.11606 4.10498 5.20599 4.08988 5.29558 4.08988Z" fill="white"></path><path d="M5.29558 3.79152C5.47465 3.79155 5.65371 3.8363 5.84771 3.88107C5.99701 3.91093 6.16138 3.95568 6.31068 3.97061V4.08988C6.13152 4.07495 5.96729 4.04512 5.81799 4.00033C5.63889 3.95556 5.45976 3.91077 5.29558 3.92565C5.19106 3.92565 5.10113 3.94075 5.04141 3.97061V3.8361C5.11606 3.80624 5.20599 3.79152 5.29558 3.79152Z" fill="white"></path><path d="M5.31043 3.47792C5.47461 3.47794 5.65369 3.52269 5.84771 3.56747C5.99701 3.61226 6.14645 3.64208 6.31068 3.65701V3.77666C6.14645 3.76173 5.96729 3.71659 5.81799 3.68673C5.63887 3.64195 5.45971 3.5972 5.31043 3.59718C5.20598 3.59718 5.11638 3.61232 5.05666 3.64215V3.50764C5.13128 3.49272 5.22092 3.47792 5.31043 3.47792Z" fill="white"></path><path d="M5.29558 3.17918C5.47464 3.17921 5.65373 3.22396 5.84771 3.26872C5.99701 3.31351 6.16138 3.34334 6.31068 3.35827V3.47792C6.13153 3.46299 5.96728 3.43316 5.81799 3.38838C5.63888 3.3436 5.45976 3.29881 5.29558 3.31369C5.19106 3.31369 5.10113 3.32841 5.04141 3.35827V3.22414C5.11606 3.19428 5.20599 3.17918 5.29558 3.17918Z" fill="white"></path><path d="M5.29558 2.86557C5.47463 2.8656 5.65373 2.91035 5.84771 2.95512C5.99701 2.99991 6.16138 3.03012 6.31068 3.04505V3.16432C6.13153 3.14939 5.96728 3.11956 5.81799 3.07477C5.63889 3.03 5.45976 2.9852 5.29558 3.00009C5.19106 3.00009 5.10113 3.01519 5.04141 3.04505V2.91054C5.11606 2.88068 5.20599 2.86557 5.29558 2.86557Z" fill="white"></path><path d="M5.29558 2.56722C5.47465 2.56725 5.65371 2.61199 5.84771 2.65676C5.99701 2.70156 6.16138 2.73138 6.31068 2.74631V2.86557C6.13152 2.85064 5.96729 2.82082 5.81799 2.77603C5.63889 2.73125 5.45976 2.68646 5.29558 2.70134C5.19106 2.70134 5.10113 2.71645 5.04141 2.74631V2.6118C5.11606 2.58193 5.20599 2.56722 5.29558 2.56722Z" fill="white"></path><path d="M5.29558 2.25362C5.47465 2.25364 5.65372 2.29839 5.84771 2.34316C5.99701 2.38795 6.16138 2.41778 6.31068 2.43271V2.55236C6.13152 2.53743 5.96729 2.50721 5.81799 2.46242C5.63889 2.41765 5.45976 2.37324 5.29558 2.38813C5.19106 2.38813 5.10113 2.40284 5.04141 2.43271V2.29819C5.11606 2.26833 5.20599 2.25362 5.29558 2.25362Z" fill="white"></path><path d="M4.36962 4.08988C4.45917 4.08988 4.54877 4.10501 4.6234 4.13485V4.26936C4.56368 4.23951 4.47412 4.22439 4.36962 4.22439C4.20543 4.20949 4.04125 4.2543 3.84721 4.29908C3.683 4.32893 3.51873 4.37368 3.35452 4.38862V4.26936C3.51869 4.25443 3.66786 4.22419 3.8171 4.17942C4.01117 4.13464 4.19049 4.08989 4.36962 4.08988Z" fill="white"></path><path d="M4.36962 3.77666C4.45916 3.79159 4.54877 3.79143 4.6234 3.82124V3.95576C4.56368 3.92591 4.4741 3.91079 4.36962 3.91079C4.20544 3.9108 4.04124 3.95562 3.84721 3.98547C3.683 4.01533 3.51873 4.06008 3.35452 4.07502V3.95576C3.51865 3.94083 3.66789 3.91096 3.8171 3.86621C4.01117 3.82143 4.19049 3.77668 4.36962 3.77666Z" fill="white"></path><path d="M4.36962 3.47792C4.45914 3.49284 4.54878 3.4927 4.6234 3.5225V3.65701C4.56368 3.62719 4.47407 3.61243 4.36962 3.61243C4.20544 3.59752 4.04124 3.64195 3.84721 3.68673C3.68299 3.71659 3.53366 3.76173 3.35452 3.77666V3.65701C3.51866 3.64208 3.66788 3.61222 3.8171 3.56747C4.01117 3.52268 4.19049 3.47794 4.36962 3.47792Z" fill="white"></path><path d="M4.36962 3.16432C4.45918 3.16432 4.54876 3.17944 4.6234 3.20928V3.34341C4.56368 3.31359 4.47406 3.29883 4.36962 3.29883C4.20543 3.29885 4.04126 3.34366 3.84721 3.37352C3.683 3.4183 3.51873 3.44813 3.35452 3.46306V3.34341C3.51866 3.32848 3.66787 3.29862 3.8171 3.25386C4.01117 3.20908 4.19049 3.16433 4.36962 3.16432Z" fill="white"></path><path d="M4.36962 2.86557C4.45917 2.8805 4.54877 2.88072 4.6234 2.91054V3.04505C4.56368 3.03012 4.47409 3.00009 4.36962 3.00009C4.20543 2.98518 4.04125 3.02999 3.84721 3.07477C3.683 3.11956 3.53365 3.14938 3.35452 3.16432V3.04505C3.51869 3.03013 3.66786 2.99988 3.8171 2.95512C4.01117 2.91033 4.19049 2.86559 4.36962 2.86557Z" fill="white"></path><path d="M4.36962 2.55236C4.45916 2.55236 4.54877 2.56711 4.6234 2.59694V2.73145C4.56368 2.71651 4.47408 2.68648 4.36962 2.68648C4.20544 2.6865 4.04124 2.73131 3.84721 2.76117C3.683 2.80595 3.51873 2.83578 3.35452 2.85071V2.73145C3.51865 2.71652 3.66789 2.68666 3.8171 2.6419C4.01117 2.59712 4.19049 2.55237 4.36962 2.55236Z" fill="white"></path><path d="M4.36962 2.25362C4.45914 2.26853 4.54878 2.2684 4.6234 2.29819V2.43271C4.56368 2.41776 4.47406 2.38813 4.36962 2.38813C4.20544 2.37322 4.04124 2.41765 3.84721 2.46242C3.683 2.50721 3.51873 2.53743 3.35452 2.55236V2.43271C3.51866 2.41778 3.66788 2.38792 3.8171 2.34316C4.01117 2.29838 4.19049 2.25363 4.36962 2.25362Z" fill="white"></path><path fill-rule="evenodd" clip-rule="evenodd" d="M13.3132 6.71758C13.3132 7.01619 13.3429 9.39034 11.8648 11.824C10.551 14.0337 8.56512 15.004 7.71408 15.3026C6.87791 15.0039 4.89208 14.0336 3.56333 11.824C2.08524 9.39036 2.11535 7.01618 2.11535 6.71758V0.969483H13.3132V6.71758ZM7.56471 13.2125L7.17681 13.0632L7.32579 13.4515L6.95275 13.6157L7.32579 13.7948L7.17681 14.1831L7.56471 14.0337L7.72894 14.4071L7.89317 14.0337L8.28146 14.1831L8.14694 13.8096L8.52037 13.6305L8.14694 13.4663L8.28146 13.078L7.89317 13.2274L7.72894 12.8544L7.56471 13.2125ZM8.23688 11.5104L7.90842 11.5702L8.14694 11.8091L8.08751 12.1376L8.38586 11.9882L8.68461 12.1376L8.63964 11.8091L8.8637 11.5702L8.53523 11.5104L8.38586 11.2117L8.23688 11.5104ZM5.68347 10.8535L5.31043 10.7788L5.47467 11.1374L5.17592 11.3759L5.54935 11.4658V11.8537L5.86256 11.6148L6.16131 11.8537V11.4658L6.5496 11.3759L6.25085 11.1374L6.41509 10.7788L6.0268 10.8535L5.86256 10.5101L5.68347 10.8535ZM9.25199 10.3311H8.90866L9.08776 10.6294L8.90866 10.9282H9.25199L9.41622 11.2269L9.58045 10.9282H9.92377L9.74468 10.6294L9.92377 10.3311H9.58045L9.41622 10.0323L9.25199 10.3311ZM2.81686 9.58459C2.96616 10.0773 3.17527 10.5999 3.45892 11.1374L7.71408 7.30021L11.9841 11.1374C12.2677 10.5999 12.4619 10.0772 12.6262 9.58459L7.71408 5.18006L2.81686 9.58459ZM7.54985 9.07664L7.16156 9.00196L7.32579 9.34567L7.02743 9.59945L7.40047 9.68899V10.0773L7.69922 9.83836L8.01282 10.0773L8.02768 9.68899L8.40111 9.59945L8.10237 9.34567L8.2666 8.9871L7.87831 9.06178L7.71408 8.73332L7.54985 9.07664ZM10.3867 1.7312C10.2375 2.02976 10.2225 2.34316 10.2225 2.59694V4.49303H10.0731C10.0285 4.49303 10.0434 4.46341 10.0434 4.44845C10.0434 4.43352 10.0583 4.41841 10.0583 4.40348C10.0582 4.34385 10.0135 4.28434 9.95388 4.28422C9.90912 4.29914 9.84918 4.35867 9.84908 4.41834C9.84908 4.49299 9.90905 4.58257 10.0434 4.58257H10.2972C10.2673 4.67215 10.2374 4.80677 10.2374 4.94114C10.2374 5.12025 10.2672 5.26952 10.3269 5.37401C10.1328 5.34415 9.99831 5.29928 9.86394 5.22464H9.84908L9.81937 5.29932H9.83423C9.95363 5.35903 10.0581 5.38907 10.1924 5.43384C10.1924 5.43384 10.2972 5.44862 10.3719 5.46355C10.357 5.47848 10.3418 5.50839 10.3418 5.53824C10.3418 5.59796 10.3869 5.64265 10.4466 5.64265C10.5062 5.64256 10.551 5.5979 10.551 5.53824C10.551 5.50839 10.5358 5.47848 10.5209 5.46355C10.5935 5.44903 10.6805 5.43461 10.6851 5.43384C10.8195 5.40398 10.9391 5.37398 11.0585 5.29932H11.0734L11.0437 5.20978H11.0288C10.8944 5.28443 10.7599 5.32929 10.5658 5.35915C10.6106 5.25467 10.6554 5.10538 10.6554 4.92628C10.6554 4.79191 10.6403 4.65729 10.5956 4.56771H10.8493C10.9837 4.56771 11.0437 4.49306 11.0437 4.40348C11.0436 4.34378 10.9986 4.28422 10.924 4.28422C10.8644 4.28429 10.8048 4.32894 10.8048 4.40348C10.8048 4.41841 10.8047 4.43352 10.8196 4.44845C10.8345 4.46338 10.8346 4.49298 10.7899 4.49303H10.6405V2.59694C10.6405 2.34317 10.6255 2.02975 10.4763 1.7312L10.4313 1.64127L10.3867 1.7312ZM2.802 5.14995H4.60854C4.65333 5.2246 4.72809 5.28446 4.8326 5.28446C4.93709 5.28445 5.0268 5.22459 5.05666 5.14995H6.8632V2.16407H6.63914L6.654 2.2239V4.94114H4.98197C4.95212 4.98592 4.92214 5.00057 4.8326 5.00058C4.75796 5.00058 4.72794 4.98592 4.69809 4.94114H3.0112V2.2239L3.02606 2.16407H2.802V5.14995ZM11.4765 5.01583C11.3721 5.03076 11.2825 5.07537 11.2079 5.14995C11.2975 5.19474 11.4021 5.20985 11.5066 5.19492C11.6111 5.17996 11.6858 5.13502 11.7604 5.06041C11.6708 5.01561 11.5811 5.0009 11.4765 5.01583ZM9.43108 5.01583C9.34155 5.00091 9.23712 5.01567 9.14758 5.06041C9.22223 5.13505 9.31172 5.17999 9.41622 5.19492C9.50576 5.20983 9.61016 5.1798 9.69971 5.14995C9.62509 5.07539 9.53552 5.03075 9.43108 5.01583ZM9.62542 4.73194C9.62542 4.82146 9.65497 4.9111 9.69971 4.98572C9.7445 5.0753 9.81926 5.13534 9.92377 5.1652V5.13509C9.92376 5.04553 9.89387 4.95595 9.84908 4.88132C9.78941 4.80674 9.7149 4.747 9.62542 4.70223V4.73194ZM11.2826 4.70223C11.193 4.74702 11.1183 4.80666 11.0585 4.88132C11.0137 4.95595 10.9839 5.04553 10.9838 5.13509V5.1652C11.0884 5.13534 11.1631 5.0753 11.2079 4.98572C11.2527 4.91109 11.2826 4.82148 11.2826 4.73194V4.70223ZM9.40136 4.49303C9.38643 4.53782 9.37125 4.58275 9.37125 4.62754C9.37126 4.67233 9.38643 4.73213 9.40136 4.77691C9.41631 4.8515 9.46099 4.89631 9.50576 4.956C9.52069 4.956 9.55066 4.97086 9.56559 4.97086V4.956C9.53573 4.86642 9.52055 4.76184 9.53548 4.6424C9.50562 4.58273 9.46104 4.53779 9.40136 4.49303ZM9.14758 4.7468C9.058 4.70201 8.95334 4.70209 8.84884 4.73194C8.90856 4.82153 8.96838 4.88149 9.0729 4.92628C9.11759 4.94118 9.16232 4.95597 9.20702 4.956C9.25177 4.94109 9.31161 4.94117 9.35639 4.92628C9.29669 4.85165 9.22221 4.77668 9.14758 4.7468ZM11.5066 4.47817C11.4469 4.52296 11.402 4.56782 11.3721 4.62754C11.3721 4.7619 11.357 4.86643 11.3272 4.956C11.357 4.956 11.3721 4.95602 11.387 4.94114C11.4467 4.89637 11.4768 4.83667 11.5066 4.76205C11.5216 4.71729 11.5363 4.65746 11.5364 4.61268C11.5364 4.5679 11.5216 4.52295 11.5066 4.47817ZM12.0588 4.71708C11.9544 4.70218 11.8499 4.70215 11.7604 4.73194C11.6858 4.76179 11.6109 4.83641 11.5512 4.91103C11.596 4.91103 11.6558 4.92621 11.7006 4.94114C11.7454 4.94114 11.7903 4.94089 11.8351 4.91103C11.9246 4.88113 11.9991 4.80658 12.0588 4.71708ZM5.31043 1.92515C5.08648 1.92515 4.96708 1.99994 4.89243 2.05967V4.67212C4.99691 4.59756 5.13144 4.56771 5.29558 4.56771C5.47464 4.56773 5.65373 4.59758 5.84771 4.65726C6.0418 4.70205 6.26589 4.76173 6.47491 4.7468V2.10424C6.25097 2.11917 6.02701 2.05949 5.81799 2.0147C5.63886 1.96992 5.45972 1.92517 5.31043 1.92515ZM9.23713 4.22439C9.19234 4.29904 9.16244 4.37373 9.16244 4.46331V4.50789C9.16244 4.58254 9.19234 4.6425 9.23713 4.70223C9.25203 4.71707 9.2816 4.73196 9.29656 4.7468V4.73194C9.28165 4.61254 9.29675 4.50796 9.34153 4.40348C9.32659 4.3438 9.28189 4.28407 9.23713 4.22439ZM4.36962 1.92515C4.20542 1.92516 4.0412 1.95506 3.86207 1.99984C3.65306 2.05956 3.44402 2.10431 3.20515 2.08938V4.73194C3.41417 4.74687 3.62333 4.70212 3.83235 4.6424C4.02634 4.59763 4.20541 4.55288 4.38448 4.55285C4.54864 4.55285 4.68314 4.59758 4.78763 4.65726V2.05967C4.69805 1.99995 4.57865 1.94008 4.36962 1.92515ZM11.6709 4.20953C11.6261 4.26925 11.581 4.3289 11.5661 4.38862C11.6109 4.50806 11.626 4.61258 11.6111 4.71708C11.6409 4.71706 11.656 4.70228 11.6709 4.68737C11.7157 4.62765 11.7302 4.56768 11.7452 4.49303V4.44845C11.7452 4.37384 11.7156 4.28416 11.6709 4.20953ZM8.63964 4.31394C8.66948 4.41838 8.72929 4.50799 8.80387 4.56771C8.83373 4.59757 8.87873 4.61261 8.92352 4.62754C8.98323 4.62754 9.02811 4.62747 9.0729 4.6424C9.02811 4.55282 8.98331 4.46313 8.90866 4.41834C8.84894 4.34372 8.74413 4.31394 8.63964 4.31394ZM12.268 4.31394C12.1635 4.31394 12.0587 4.34376 11.9841 4.40348C11.9095 4.4632 11.8497 4.53798 11.8199 4.62754C11.8646 4.61262 11.9244 4.61268 11.9692 4.61268C12.014 4.61268 12.059 4.58264 12.0889 4.56771C12.1635 4.50799 12.2232 4.41839 12.268 4.31394ZM9.13233 3.92565C9.05775 4.00024 9.01317 4.08991 8.99821 4.17942V4.23925C8.99821 4.28404 9.013 4.32891 9.02793 4.38862L9.0729 4.43359C9.0729 4.43359 9.07282 4.41834 9.08776 4.41834C9.10269 4.31392 9.13252 4.2095 9.19216 4.11999C9.19216 4.04533 9.16219 3.98537 9.13233 3.92565ZM11.7753 3.91079C11.7454 3.97051 11.7303 4.04541 11.7303 4.10513C11.7751 4.22445 11.8049 4.31393 11.8199 4.41834C11.8497 4.41834 11.8648 4.40358 11.8797 4.37376C11.8946 4.32897 11.9094 4.28411 11.9094 4.22439V4.16456C11.8945 4.07503 11.8499 3.9854 11.7753 3.91079ZM12.3575 3.88107C12.2679 3.91093 12.1784 3.95579 12.1037 4.03044C12.0441 4.10508 12.0143 4.19459 11.9993 4.29908C12.0441 4.28417 12.0887 4.26901 12.1483 4.25411C12.1931 4.22425 12.2233 4.19442 12.2531 4.16456C12.3277 4.07505 12.3575 3.9855 12.3575 3.88107ZM8.53523 3.88107C8.55016 3.9855 8.57999 4.07509 8.63964 4.1497C8.6695 4.17957 8.71457 4.20939 8.74443 4.23925C8.78917 4.25416 8.83382 4.26931 8.87856 4.28422C8.87856 4.19465 8.84871 4.10509 8.78901 4.03044C8.72929 3.95579 8.63975 3.91093 8.53523 3.88107ZM9.11747 3.62729C9.028 3.68696 8.96829 3.74661 8.92352 3.8361C8.89369 3.89577 8.89381 3.95553 8.89381 4.01519V4.0453C8.90869 4.06027 8.92352 4.09024 8.92352 4.10513C8.92352 4.10513 8.93838 4.10443 8.93838 4.08988C8.96825 3.98544 9.02795 3.89586 9.11747 3.82124C9.1324 3.79138 9.13233 3.76155 9.13233 3.7317C9.13233 3.70188 9.11751 3.65715 9.11747 3.62729ZM11.7901 3.59718C11.7752 3.62704 11.7753 3.67212 11.7753 3.70198C11.7753 3.73179 11.7752 3.76171 11.7901 3.79152C11.8797 3.89598 11.9394 3.98548 11.9692 4.07502C11.9991 4.06009 11.9993 4.04505 12.0142 4.01519V3.98547C12.0142 3.92576 11.999 3.86609 11.9841 3.80638C11.9542 3.7168 11.8797 3.6569 11.7901 3.59718ZM12.3724 3.43295C12.2828 3.47774 12.2084 3.55258 12.1636 3.64215C12.1188 3.7168 12.1037 3.79156 12.1037 3.86621V3.92565C12.1485 3.89583 12.1931 3.86592 12.2379 3.8361C12.2677 3.80624 12.2979 3.76156 12.3278 3.7317C12.3576 3.67198 12.3724 3.58227 12.3724 3.50764V3.43295ZM8.52037 3.49278C8.52037 3.56743 8.53541 3.65712 8.5802 3.71684C8.59514 3.76157 8.62499 3.7914 8.66975 3.82124C8.71448 3.83617 8.75914 3.86611 8.80387 3.89593V3.8361C8.80386 3.76154 8.78912 3.68699 8.74443 3.61243C8.69964 3.52285 8.62488 3.44803 8.52037 3.40323V3.49278ZM9.16244 3.31369C9.05793 3.34355 8.98325 3.40327 8.92352 3.47792C8.87874 3.52271 8.84884 3.58238 8.84884 3.65701C8.86377 3.67194 8.8637 3.70184 8.8637 3.7317H8.87856C8.93827 3.64213 9.01298 3.56729 9.11747 3.5225C9.1473 3.4628 9.16243 3.38829 9.16244 3.31369ZM11.7452 3.29883C11.7452 3.37341 11.7603 3.44796 11.7901 3.50764C11.8947 3.55243 11.9693 3.62726 12.0291 3.71684C12.044 3.70191 12.0588 3.67194 12.0588 3.65701C12.0439 3.58238 12.0289 3.52277 11.9841 3.46306C11.9244 3.38841 11.8497 3.32869 11.7452 3.29883ZM8.62478 2.98523C8.60986 3.04491 8.59508 3.1195 8.59506 3.17918C8.59506 3.22388 8.59507 3.25378 8.60992 3.28358C8.62485 3.32837 8.63989 3.3733 8.66975 3.41809C8.71448 3.44792 8.74432 3.47779 8.77415 3.5225C8.78907 3.46282 8.80387 3.40302 8.80387 3.35827C8.80387 3.31356 8.80392 3.28374 8.78901 3.239C8.75915 3.14943 8.69943 3.05987 8.62478 2.98523ZM12.268 2.98523C12.1933 3.05988 12.1336 3.13449 12.1037 3.239C12.0888 3.26883 12.0889 3.31353 12.0889 3.35827C12.0889 3.41792 12.1037 3.47772 12.1186 3.5225C12.1485 3.47778 12.1932 3.44792 12.223 3.41809C12.2529 3.3733 12.2679 3.32837 12.2828 3.28358C12.2977 3.25372 12.2977 3.20899 12.2977 3.17918C12.3126 3.11949 12.2978 3.04491 12.268 2.98523ZM9.26685 3.01494C9.16241 3.02987 9.07283 3.0597 8.99821 3.11935C8.95346 3.14918 8.90878 3.20903 8.89381 3.28358V3.34341H8.90866C8.9833 3.26881 9.07283 3.22388 9.1773 3.19403C9.22205 3.13434 9.25192 3.07463 9.26685 3.01494ZM11.6408 3.00009C11.6557 3.07469 11.6856 3.13439 11.7303 3.17918C11.8348 3.20904 11.9247 3.26883 11.9993 3.32855H12.0142V3.28358C11.9844 3.20899 11.9542 3.14926 11.8945 3.10449C11.8199 3.04483 11.7452 3.01501 11.6408 3.00009ZM8.84884 2.58208C8.78915 2.67161 8.74448 2.76113 8.74443 2.86557C8.74443 2.91036 8.75922 2.9553 8.77415 3.00009C8.80401 3.04488 8.83391 3.08981 8.84884 3.1346C8.89363 3.05995 8.93838 2.97009 8.93838 2.86557C8.93833 2.77603 8.8936 2.6716 8.84884 2.58208ZM12.0736 2.58208C12.014 2.67158 11.9693 2.76116 11.9692 2.86557C11.9692 2.95515 11.9991 3.04502 12.0588 3.1346C12.0737 3.08982 12.1036 3.04487 12.1335 3.00009C12.1484 2.95529 12.1636 2.91036 12.1636 2.86557C12.1635 2.76112 12.1333 2.67162 12.0736 2.58208ZM9.44594 2.74631C9.35642 2.73142 9.25196 2.74616 9.16244 2.79089C9.10273 2.82074 9.04294 2.86569 9.01307 2.9254C9.01307 2.95525 9.01312 2.97025 8.99821 3.00009H9.01307C9.10265 2.94036 9.20723 2.91054 9.32667 2.91054C9.37144 2.86577 9.41608 2.806 9.44594 2.74631ZM11.4468 2.74631C11.4916 2.80598 11.5213 2.86577 11.5809 2.91054C11.7004 2.91054 11.805 2.9404 11.8945 3.00009C11.8945 2.97023 11.8797 2.95526 11.8797 2.9254C11.8349 2.8657 11.79 2.82074 11.7303 2.79089C11.6408 2.74617 11.5512 2.73141 11.4468 2.74631ZM11.7604 2.23876C11.7455 2.29845 11.7303 2.3581 11.7303 2.43271C11.7303 2.46251 11.7303 2.50725 11.7452 2.53711C11.7601 2.62665 11.8199 2.70141 11.8945 2.77603C11.9095 2.73124 11.9246 2.67142 11.9395 2.62665V2.59694C11.9395 2.56711 11.9395 2.53725 11.9247 2.49253C11.8948 2.403 11.8499 2.31338 11.7604 2.23876ZM9.11747 2.2239C9.04289 2.2985 8.98308 2.37323 8.95324 2.47767C8.96812 2.52241 8.95324 2.55224 8.95324 2.58208V2.6118C8.98309 2.65657 8.9982 2.71638 8.99821 2.76117C9.07283 2.68653 9.11773 2.61181 9.14758 2.52225C9.16245 2.4924 9.16244 2.44767 9.16244 2.41785C9.16244 2.35816 9.1473 2.2836 9.11747 2.2239ZM9.68485 2.52225C9.59532 2.49242 9.49089 2.47758 9.40136 2.50739C9.32677 2.52231 9.26705 2.55217 9.22227 2.6118C9.20734 2.64166 9.20709 2.65669 9.19216 2.67162C9.31157 2.64177 9.41613 2.64184 9.52062 2.65676C9.58034 2.6269 9.64006 2.58197 9.68485 2.52225ZM11.5066 2.50739C11.4171 2.47753 11.3123 2.49239 11.2228 2.52225C11.2676 2.58197 11.3273 2.6269 11.387 2.65676C11.4915 2.64183 11.611 2.64176 11.7006 2.67162H11.7155C11.7005 2.6567 11.7007 2.64165 11.6857 2.6118C11.6261 2.56704 11.5663 2.53723 11.5066 2.50739ZM9.4909 1.96973C9.40132 2.01452 9.3265 2.08935 9.2817 2.17893C9.2668 2.22364 9.25203 2.25352 9.23713 2.29819C9.25204 2.35786 9.25199 2.40279 9.25199 2.46242C9.34152 2.41763 9.41608 2.3431 9.44594 2.26847C9.49073 2.19382 9.50576 2.11907 9.50576 2.04442C9.50576 2.01464 9.50581 1.99955 9.4909 1.96973ZM11.4167 1.96973C11.4018 1.99955 11.4019 2.01464 11.4019 2.04442C11.4019 2.11907 11.417 2.19382 11.4468 2.26847C11.4916 2.35799 11.5661 2.41764 11.6556 2.46242C11.6556 2.40279 11.656 2.35786 11.6709 2.29819C11.656 2.25344 11.6557 2.20877 11.6259 2.17893C11.5811 2.08935 11.5063 2.01452 11.4167 1.96973ZM9.89405 2.07452C9.78954 2.07452 9.68482 2.10435 9.61017 2.16407L9.58045 2.19379C9.56553 2.22362 9.5504 2.26833 9.53548 2.29819C9.52055 2.32805 9.49066 2.37313 9.46079 2.40299C9.55038 2.40299 9.64031 2.37316 9.71496 2.31344C9.78959 2.25373 9.84927 2.16408 9.89405 2.07452ZM11.0136 2.07452C11.0434 2.17898 11.1032 2.26864 11.1778 2.31344C11.2524 2.35823 11.3424 2.38806 11.432 2.40299C11.4021 2.37313 11.3871 2.34298 11.3573 2.29819C11.3424 2.26833 11.3272 2.22362 11.3123 2.19379L11.2826 2.16407C11.2229 2.10435 11.133 2.07452 11.0136 2.07452Z" fill="white"></path><path d="M29.7516 10.3459H29.3035V9.65888H29.7516V10.3459Z" fill="white"></path><path d="M48.3695 10.3459H47.907V9.65888H48.3695V10.3459Z" fill="white"></path><path d="M49.3104 0.894797C49.4298 0.894801 49.5791 0.909977 49.7284 0.924906C49.9822 0.954767 50.3405 1.04406 50.8033 1.23812L50.8631 2.821H50.7587C50.6691 2.46267 50.6241 1.89541 49.9075 1.49229C49.6984 1.38777 49.4447 1.3128 49.161 1.3128C48.2652 1.31281 47.9965 1.96994 47.9965 2.41785C47.9965 3.07475 48.4145 3.32857 49.4148 3.82124C50.4001 4.32885 51.3854 4.65735 51.3855 6.06065C51.3855 7.3596 50.206 8.18112 49.1012 8.19605H49.0566C48.2951 8.19605 47.5933 7.8971 47.1155 7.61342V6.04579H47.2199C47.2647 6.23989 47.2499 6.74782 47.9218 7.37489C48.2055 7.61371 48.5638 7.76277 49.0116 7.76279C50.1314 7.76279 50.4303 6.86703 50.4303 6.3594C50.4302 5.3591 49.6686 5.15002 48.6683 4.6424C47.653 4.13477 47.1452 3.59732 47.1452 2.74631C47.1452 1.49215 48.31 0.894797 49.3104 0.894797Z" fill="white"></path><path fill-rule="evenodd" clip-rule="evenodd" d="M29.3781 0.865079C31.11 0.894939 33.0359 2.1938 32.9912 4.58257C32.9315 6.98629 30.9162 8.24043 29.1693 8.1808C27.1388 8.13601 25.4364 6.58325 25.4812 4.41834C25.541 2.71632 26.8998 0.790451 29.3781 0.865079ZM29.2436 1.3128C27.691 1.31289 26.6159 2.44781 26.6159 4.37376C26.616 6.673 27.9749 7.70336 29.2589 7.70336C30.8116 7.70329 31.8416 6.5087 31.8416 4.62754C31.8565 2.61193 30.8113 1.3128 29.2436 1.3128Z" fill="white"></path><path d="M21.1216 6.34454L23.3911 0.969483H24.9736V1.07389C24.5706 1.10374 24.4661 1.13381 24.4661 1.55172V7.31507C24.4661 7.88231 24.5706 7.95699 24.9736 7.98685V8.09126H22.943V7.98685C23.3461 7.97192 23.4509 7.88235 23.451 7.31507V2.19379C23.451 2.08929 23.4658 1.96973 23.4658 1.96973L23.3911 2.20865L20.8827 8.06154H20.7333L18.2699 2.37288L18.1803 2.10424C18.1803 2.10424 18.1951 2.28325 18.1952 2.37288V7.31507C18.1952 7.88235 18.3 7.95699 18.7031 7.98685V8.09126H17.1801V7.98685C17.5831 7.97192 17.6876 7.88234 17.6876 7.31507V1.4176C17.6876 1.37281 17.6877 1.32781 17.6728 1.29795C17.6578 1.26808 17.6278 1.22338 17.6129 1.19354C17.5383 1.10398 17.4189 1.08882 17.1949 1.07389V0.969483H18.8224L21.1216 6.34454Z" fill="white"></path><path d="M39.0529 6.0759V1.55172C39.0529 1.13378 38.9335 1.08882 38.5454 1.07389V0.969483H40.0536V1.07389C39.6505 1.10374 39.5456 1.13379 39.5456 1.55172V8.09126H39.3814C38.5152 7.0458 34.5589 2.22354 34.5589 2.13396V7.31507C34.5589 7.88235 34.6637 7.95699 35.0668 7.98685V8.09126H33.5289V7.98685C33.932 7.97192 34.0364 7.88233 34.0364 7.31507V1.55172C34.0364 1.1338 33.917 1.08882 33.5289 1.07389V0.969483H34.8725L39.0529 6.0759Z" fill="white"></path><path fill-rule="evenodd" clip-rule="evenodd" d="M46.2944 7.52388C46.4586 7.91207 46.5333 7.97192 46.7722 7.98685V8.09126H44.8761V7.98685C45.0702 7.98684 45.2491 7.9717 45.2491 7.77765C45.249 7.70289 45.1746 7.52378 45.1447 7.44919C45.0253 7.19531 44.7862 6.62793 44.5175 5.97111H41.8151C41.4717 6.74749 41.203 7.4494 41.1582 7.56884C41.1284 7.6434 41.1137 7.71798 41.1136 7.77765C41.1286 7.98667 41.3673 7.98685 41.4718 7.98685V8.09126H40.113V7.98685C40.2026 7.97192 40.2925 7.97206 40.382 7.86759C40.5015 7.73321 40.6654 7.35961 40.7699 7.12073C41.3373 5.76198 43.0096 1.8205 43.3679 0.969483H43.5024L46.2944 7.52388ZM43.1439 2.59694C43.1405 2.60544 42.4411 4.39137 41.9794 5.52338H44.3236C43.7861 4.2095 43.1439 2.59694 43.1439 2.59694Z" fill="white"></path><path d="M54.3417 1.07389C53.9387 1.08883 53.8341 1.17878 53.8341 1.74606V4.22439H57.4773V1.74606C57.4773 1.17878 57.3728 1.10376 56.9698 1.07389V0.969483H59V1.07389C58.597 1.10375 58.4924 1.1787 58.4924 1.76092V7.31507C58.4925 7.88228 58.597 7.95698 59 7.98685V8.09126H56.9698V7.98685C57.3727 7.9719 57.4773 7.88227 57.4773 7.31507V4.65726H53.8341V7.30021C53.8342 7.86735 53.9387 7.94213 54.3417 7.97199V8.0764H52.3115V7.97199C52.7144 7.95705 52.819 7.86736 52.819 7.30021V1.74606C52.819 1.17877 52.7145 1.10376 52.3115 1.07389V0.969483H54.3417V1.07389Z" fill="white"></path></svg> 